<?xml version="1.0" standalone="no"?>
<!DOCTYPE svg PUBLIC "-//W3C//DTD SVG 20010904//EN"
 "http://www.w3.org/TR/2001/REC-SVG-20010904/DTD/svg10.dtd">
<svg version="1.0" xmlns="http://www.w3.org/2000/svg"
 width="70" height="70" viewBox="0 0 512.000000 512.000000"
 preserveAspectRatio="xMidYMid meet">

<g transform="translate(0.000000,512.000000) scale(0.100000,-0.100000)"
fill="#000000" stroke="none">
<path d="M3180 5107 c-27 -8 -153 -127 -527 -501 -271 -269 -494 -488 -497
-485 -2 2 -15 31 -28 64 -62 152 -176 275 -327 354 -354 184 -816 80 -1246
-281 -153 -129 -221 -202 -244 -264 -83 -219 110 -439 338 -384 28 7 66 22 84
35 l33 22 29 -54 c30 -58 65 -92 129 -126 33 -17 58 -22 126 -22 74 0 91 3
134 28 27 15 50 27 51 27 2 0 13 -20 25 -45 12 -25 45 -65 73 -90 l52 -45
-681 -683 c-725 -727 -704 -703 -704 -797 0 -95 -34 -58 869 -964 897 -899
893 -896 985 -896 96 0 100 3 434 334 283 282 312 313 312 343 0 43 -30 73
-72 73 -29 0 -64 -32 -333 -300 -278 -277 -304 -300 -335 -300 -33 0 -87 52
-872 838 -791 790 -838 839 -838 872 0 33 82 117 1538 1572 1455 1456 1539
1538 1572 1538 33 0 82 -47 872 -838 790 -789 838 -839 838 -872 0 -33 -64
-99 -1150 -1185 -1098 -1099 -1150 -1152 -1150 -1186 0 -44 28 -72 71 -72 27
0 66 35 315 284 l284 284 45 -52 c25 -28 65 -61 90 -73 25 -12 45 -23 45 -25
0 -1 -12 -24 -27 -50 -39 -71 -44 -174 -11 -246 34 -74 68 -111 131 -144 l54
-29 -22 -33 c-70 -103 -52 -265 40 -358 58 -57 116 -80 205 -80 104 0 153 25
247 123 395 410 561 849 464 1225 -55 213 -220 405 -414 484 -34 14 -64 27
-66 29 -3 3 216 226 485 497 526 527 514 514 514 613 -1 89 3 85 -878 968
-671 672 -847 843 -887 862 -54 26 -115 30 -175 11z m-1612 -643 c212 -43 387
-199 438 -389 25 -93 35 -78 -238 -352 -144 -144 -261 -253 -271 -253 -31 0
-77 30 -97 63 -30 48 -26 105 10 158 35 52 37 77 9 113 -14 18 -30 26 -51 26
-26 0 -49 -17 -134 -100 -57 -55 -115 -105 -129 -110 -95 -36 -195 31 -195
131 0 23 10 51 30 80 45 66 38 117 -19 137 -41 14 -69 -3 -176 -107 -49 -49
-100 -94 -112 -100 -79 -40 -193 35 -193 127 0 50 21 81 114 170 155 146 339
271 498 338 183 78 358 101 516 68z m2513 -2460 c91 -27 151 -64 225 -138 264
-264 223 -714 -104 -1144 -78 -102 -217 -249 -253 -268 -111 -57 -243 74 -185
184 8 15 54 65 101 112 98 96 118 129 103 172 -20 56 -66 62 -135 18 -110 -70
-231 -2 -220 123 4 45 10 53 111 156 94 97 106 114 106 145 0 25 -7 40 -26 55
-36 28 -55 26 -111 -9 -53 -34 -106 -39 -154 -15 -33 18 -69 69 -69 100 0 13
91 111 252 272 277 277 260 266 359 237z"/>
<path d="M3189 4791 c-23 -23 -29 -38 -29 -71 0 -33 6 -48 29 -71 65 -64 171
-20 171 71 0 33 -6 48 -29 71 -23 23 -38 29 -71 29 -33 0 -48 -6 -71 -29z"/>
<path d="M2884 4318 c-170 -169 -184 -186 -184 -219 0 -44 28 -72 71 -72 26 0
54 23 192 159 l162 160 60 -7 c33 -3 96 -4 140 -2 l80 5 471 -474 471 -473 -6
-67 c-4 -36 -4 -98 -1 -137 l5 -71 -1171 -1171 -1171 -1171 -143 0 -143 0
-471 471 -472 472 7 69 c3 39 3 101 0 140 l-7 69 928 928 c850 850 928 931
928 960 0 43 -30 73 -72 73 -30 0 -114 -81 -986 -954 l-954 -953 8 -89 c9
-109 9 -99 0 -208 l-8 -89 523 -522 524 -521 198 1 198 1 1221 1221 1220 1220
-8 84 c-10 104 -10 104 0 213 l8 89 -525 525 -525 525 -78 -9 c-100 -10 -130
-11 -228 0 l-78 8 -184 -184z"/>
<path d="M4649 3331 c-23 -23 -29 -38 -29 -71 0 -33 6 -48 29 -71 65 -64 171
-20 171 71 0 33 -6 48 -29 71 -23 23 -38 29 -71 29 -33 0 -48 -6 -71 -29z"/>
<path d="M2132 3026 c-45 -43 -55 -59 -55 -86 0 -37 40 -80 74 -80 11 0 47 25
80 57 51 49 59 61 59 93 0 45 -24 70 -69 70 -26 0 -44 -11 -89 -54z"/>
<path d="M2402 2697 c-45 -48 -16 -184 54 -249 71 -66 202 -91 244 -46 52 56
2 128 -87 128 -36 0 -83 51 -83 90 0 86 -77 132 -128 77z"/>
<path d="M2917 2231 c-32 -33 -57 -69 -57 -80 0 -34 43 -74 79 -74 25 0 43 11
86 53 47 46 55 60 55 91 0 45 -25 69 -72 69 -30 0 -43 -9 -91 -59z"/>
<path d="M329 1931 c-64 -65 -20 -171 71 -171 58 0 100 42 100 100 0 58 -42
100 -100 100 -33 0 -48 -6 -71 -29z"/>
<path d="M1789 471 c-64 -65 -20 -171 71 -171 33 0 48 6 71 29 64 65 20 171
-71 171 -33 0 -48 -6 -71 -29z"/>
</g>
</svg>
